<svg xmlns="http://www.w3.org/2000/svg" width="15" height="15" viewBox="0 0 15 15" fill="none">
    <path
        d="M7.5 0C3.35765 0 0 3.35765 0 7.5C0 11.6424 3.35765 15 7.5 15C11.6419 15 15 11.6419 15 7.5C15 3.35814 11.6424 0 7.5 0ZM10.1517 9.4889C10.335 9.67218 10.335 9.9689 10.1517 10.1517C9.96841 10.335 9.67172 10.335 9.4889 10.1517L7.50282 8.16561L5.50311 10.1653C5.31843 10.3495 5.01936 10.3495 4.83515 10.1653C4.65047 9.98064 4.65047 9.68157 4.83515 9.49733L6.83483 7.49765L4.84873 5.51154C4.66544 5.32826 4.66544 5.03154 4.84873 4.84875C5.03201 4.66547 5.32873 4.66547 5.51152 4.84875L7.49762 6.83485L9.51186 4.82064C9.69654 4.63596 9.99559 4.63596 10.1798 4.82064C10.3645 5.00532 10.3645 5.30439 10.1798 5.4886L8.16559 7.50284L10.1517 9.4889Z"
        fill="#F13D3D" />
</svg>