<svg xmlns="http://www.w3.org/2000/svg" width="45" height="45" viewBox="0 0 45 45" fill="none">
    <path fill-rule="evenodd" clip-rule="evenodd" d="M12.4066 9.62558C13.3247 9.01212 14.4041 8.68469 15.5083 8.68469C16.2173 8.68469 16.7919 9.25939 16.7919 9.96832C16.7919 10.6772 16.2173 11.2519 15.5083 11.2519C14.9119 11.2519 14.3288 11.4288 13.8329 11.7602C13.337 12.0915 12.9505 12.5625 12.7222 13.1136C12.494 13.6646 12.4343 14.2709 12.5506 14.8559C12.667 15.4409 12.9542 15.9782 13.3759 16.4C13.7977 16.8217 14.335 17.109 14.92 17.2253C15.505 17.3417 16.1113 17.282 16.6624 17.0537C17.2134 16.8255 17.6844 16.4389 18.0158 15.943C18.3471 15.4471 18.524 14.864 18.524 14.2676C18.524 13.5587 19.0987 12.984 19.8076 12.984C20.5165 12.984 21.0912 13.5587 21.0912 14.2676C21.0912 15.3718 20.7638 16.4512 20.1503 17.3693C19.5369 18.2874 18.665 19.003 17.6448 19.4255C16.6247 19.8481 15.5021 19.9587 14.4192 19.7432C13.3362 19.5278 12.3414 18.9961 11.5606 18.2153C10.7798 17.4345 10.2481 16.4397 10.0327 15.3568C9.81727 14.2738 9.92783 13.1513 10.3504 12.1311C10.7729 11.111 11.4885 10.239 12.4066 9.62558Z" fill="#8D98AA"/>
    <path fill-rule="evenodd" clip-rule="evenodd" d="M43.3984 16.1284C44.0971 16.1284 44.6635 16.7066 44.6635 17.4199V28.2339C44.6635 33.766 43.5935 37.9744 40.872 40.7681C38.1487 43.5636 34.0445 44.6633 28.6517 44.6633H16.012C10.621 44.6633 6.51684 43.5641 3.79319 40.7689C1.0712 37.9754 0.000244141 33.767 0.000244141 28.2339V23.8859C0.000244141 23.1727 0.566672 22.5944 1.2654 22.5944C1.96412 22.5944 2.53055 23.1727 2.53055 23.8859V28.2339C2.53055 33.5148 3.56818 36.8753 5.58714 38.9473C7.60444 41.0176 10.8736 42.0803 16.012 42.0803H28.6517C33.7918 42.0803 37.0609 41.0172 39.0778 38.9468C41.0963 36.8747 42.1332 33.5141 42.1332 28.2339V17.4199C42.1332 16.7066 42.6996 16.1284 43.3984 16.1284Z" fill="#8D98AA"/>
    <path fill-rule="evenodd" clip-rule="evenodd" d="M3.84559 3.81533C6.60547 1.07717 10.7642 0 16.231 0H24.7777C25.4823 0 26.0536 0.566737 26.0536 1.26584C26.0536 1.96495 25.4823 2.53168 24.7777 2.53168H16.231C11.016 2.53168 7.6972 3.57438 5.64997 5.6055C3.60274 7.63661 2.55177 10.9293 2.55177 16.1032C2.55177 16.8023 1.98054 17.369 1.27589 17.369C0.571233 17.369 0 16.8023 0 16.1032C0 10.6795 1.08572 6.55348 3.84559 3.81533Z" fill="#8D98AA"/>
    <path fill-rule="evenodd" clip-rule="evenodd" d="M28.535 7.44377C28.535 6.75858 29.1296 6.20312 29.863 6.20312H42.0948C42.8282 6.20312 43.4228 6.75858 43.4228 7.44377C43.4228 8.12896 42.8282 8.68442 42.0948 8.68442H29.863C29.1296 8.68442 28.535 8.12896 28.535 7.44377Z" fill="#8D98AA"/>
    <path fill-rule="evenodd" clip-rule="evenodd" d="M35.979 -0.00012207C36.6642 -0.00012207 37.2196 0.594443 37.2196 1.32788V13.5596C37.2196 14.2931 36.6642 14.8876 35.979 14.8876C35.2938 14.8876 34.7383 14.2931 34.7383 13.5596V1.32788C34.7383 0.594443 35.2938 -0.00012207 35.979 -0.00012207Z" fill="#8D98AA"/>
    <path fill-rule="evenodd" clip-rule="evenodd" d="M34.8 24.4096L26.0195 32.0104L25.9962 32.0301C24.9287 32.9102 23.5893 33.3914 22.207 33.3914C20.8247 33.3914 19.4853 32.9102 18.4178 32.0301C18.4063 32.0206 18.395 32.0109 18.3838 32.001L17.706 31.4009C17.1384 30.9429 16.4413 30.6753 15.7132 30.6364C14.9806 30.5973 14.2546 30.7916 13.6392 31.1915L3.22254 38.2418C2.6411 38.6353 1.85141 38.482 1.45871 37.8993C1.06602 37.3166 1.21903 36.5252 1.80046 36.1317L12.2432 29.0638C13.3118 28.3653 14.5745 28.0257 15.8485 28.0938C17.1225 28.1619 18.3419 28.6343 19.3303 29.4427C19.3432 29.4532 19.3558 29.464 19.3682 29.4749L20.048 30.0768C20.6581 30.5737 21.4205 30.8451 22.207 30.8451C22.9958 30.8451 23.7602 30.5722 24.3711 30.0727L33.1515 22.4719L33.1749 22.4522C34.2423 21.5721 35.5817 21.0909 36.9641 21.0909C38.3464 21.0909 39.6858 21.5721 40.7533 22.4522L40.7766 22.472L44.2237 25.4562C44.7546 25.9158 44.8132 26.7198 44.3545 27.2518C43.8958 27.7839 43.0936 27.8426 42.5627 27.383L39.1281 24.4096C38.5172 23.9101 37.7528 23.6372 36.9641 23.6372C36.1753 23.6372 35.4109 23.9101 34.8 24.4096Z" fill="#8D98AA"/>
  </svg>