<svg width="300" height="300" viewBox="0 0 300 300" fill="none" xmlns="http://www.w3.org/2000/svg">
<path d="M156.753 13.5672C160.789 15.5011 163.315 17.7841 165.91 21.4159C166.391 24.4329 166.391 24.4329 166.61 27.7061C167.378 31.9663 167.953 33.9533 171.122 36.9588C174.747 39.2783 178.431 41.2846 182.262 43.2452C185.107 44.7976 187.951 46.351 190.795 47.9054C192.284 48.6996 193.772 49.4938 195.306 50.3121C200.026 52.8457 204.665 55.5087 209.293 58.2068C210.058 58.6526 210.822 59.0984 211.61 59.5577C213.874 60.8782 216.136 62.1996 218.399 63.5211C221.207 65.1515 224.017 66.7783 226.83 68.401C228.014 69.0859 229.198 69.7709 230.418 70.4766C232.157 71.4448 232.157 71.4448 233.932 72.4327C235.298 73.2005 236.664 73.9682 238.071 74.7593C239.295 75.2865 240.52 75.8138 241.781 76.3571C244.409 75.0723 247.024 73.7612 249.63 72.4327C255.613 72.0826 260.14 72.9615 265.246 76.1118C270.263 81.4329 271.137 85.8879 270.984 93.0305C270.328 97.5881 268.271 100.379 265.327 103.828C261.403 106.444 261.403 106.444 257.479 106.444C257.479 134.935 257.479 163.426 257.479 192.78C259.205 193.212 260.932 193.643 262.711 194.088C270.28 200.953 270.28 200.953 270.872 205.8C271.106 213.039 270.387 217.275 265.327 222.867C259.593 227.001 255.364 227.061 248.644 226.163C245.706 225.483 245.706 225.483 242.743 223.891C239.103 222.464 239.103 222.464 235.413 224.284C234.054 225.091 232.696 225.898 231.296 226.73C230.552 227.163 229.808 227.596 229.041 228.042C226.624 229.456 224.229 230.903 221.832 232.351C220.175 233.329 218.516 234.304 216.856 235.278C212.796 237.665 208.751 240.078 204.71 242.499C200.694 244.898 196.654 247.259 192.615 249.621C190.813 250.68 189.015 251.748 187.222 252.824C182.616 255.586 177.973 257.974 173.105 260.23C170.418 261.536 170.418 261.536 168.526 263.419C167.73 266.425 167.627 269.092 167.607 272.197C166.918 277.505 163.247 280.893 159.369 284.349C154.431 286.818 149.038 286.467 143.672 285.657C139.566 283.765 137.097 281.5 134.515 277.808C134.043 274.791 134.043 274.791 133.82 271.518C133.049 267.258 132.472 265.27 129.303 262.265C125.679 259.945 121.994 257.939 118.164 255.979C115.32 254.426 112.478 252.873 109.635 251.318C108.147 250.524 106.659 249.73 105.125 248.912C97.2866 244.707 89.6326 240.175 81.945 235.703C79.1199 234.075 76.2941 232.448 73.4677 230.823C69.9169 228.78 66.4118 226.739 62.9705 224.516C61.9745 223.972 60.9784 223.427 59.9522 222.867C56.8548 223.842 56.8548 223.842 53.4116 225.483C47.3386 226.973 42.2409 227.645 36.5695 224.665C31.6504 220.927 29.0713 218.488 28.1484 212.259C27.8578 206.846 28.3392 203.689 30.7647 198.748C33.7897 195.396 33.7897 195.396 40.3303 192.78C40.3303 164.289 40.3303 135.798 40.3303 106.444C38.1719 105.581 36.0135 104.717 33.7897 103.828C28.9482 98.4627 27.7018 94.0799 28.0565 87.0571C29.1506 80.8274 32.3159 77.4196 37.3053 73.8226C43.6378 71.7914 49.6177 72.5011 55.9186 74.56C60.7755 75.4313 64.7146 72.1302 68.782 69.7347C69.7967 69.154 70.8114 68.5733 71.8569 67.975C75.3119 65.9903 78.7514 63.9803 82.1903 61.9677C84.8199 60.4394 87.4497 58.9116 90.0799 57.3842C94.148 55.0199 98.2116 52.6492 102.264 50.2575C107.973 46.8901 113.667 43.5561 119.564 40.5268C127.619 36.799 127.619 36.799 133.391 30.4655C134.166 27.3661 134.166 27.3661 134.515 22.724C140.061 14.2211 146.868 11.7365 156.753 13.5672ZM156.753 46.2702C154.813 46.68 154.813 46.68 152.834 47.098C148.466 48.5901 148.466 48.5901 146.651 53.3729C146.032 55.3004 145.45 57.2401 144.898 59.1879C144.582 60.2166 144.266 61.2452 143.94 62.305C137.425 81.4568 137.425 81.4568 134.515 101.211C131.062 99.9163 127.608 98.6213 124.05 97.287C125.385 84.3152 127.842 71.9338 131.128 59.3147C131.415 58.1869 131.701 57.0592 131.996 55.8972C132.392 54.3891 132.392 54.3891 132.797 52.8504C133.454 49.9382 133.454 49.9382 131.899 46.2702C120.519 52.7497 109.148 59.2449 97.7867 65.7583C96.139 66.7028 94.4912 67.6471 92.8431 68.591C87.6777 71.55 82.5203 74.5224 77.3666 77.5017C76.0243 78.2708 74.682 79.0399 73.2991 79.8324C72.0732 80.5438 70.8473 81.2552 69.5843 81.9881C68.5089 82.6084 67.4336 83.2288 66.3258 83.8679C63.6919 85.3459 63.6919 85.3459 62.5684 88.1302C63.4221 88.2872 64.2758 88.4442 65.1553 88.606C111.304 97.1972 153.676 112.59 191.418 141.109C190.764 141.763 189.456 143.071 188.802 143.725C186.186 143.071 177.748 139.049 172.042 135.713C138.846 116.854 100.401 103.836 61.9144 103.582C60.6058 103.564 59.2973 103.545 57.9491 103.526C54.4879 103.503 54.4879 103.503 52.1034 106.444C51.6737 110.165 51.6737 110.165 51.7026 114.583C51.6817 116.295 51.6608 118.006 51.6393 119.769C51.6309 121.647 51.6239 123.524 51.618 125.401C51.6063 127.321 51.5943 129.24 51.5822 131.16C51.5606 135.187 51.5506 139.214 51.5468 143.241C51.5397 148.399 51.4905 153.557 51.4307 158.715C51.3918 162.681 51.3823 166.647 51.381 170.613C51.3755 172.515 51.3592 174.416 51.3319 176.318C51.2968 178.979 51.3071 181.641 51.3194 184.302C51.3128 185.816 51.3061 187.331 51.2993 188.891C52.35 193.973 54.465 195.139 58.6441 198.012C60.4848 201.807 61.4363 205.734 62.5684 209.786C109.768 205.35 154.154 180.088 189.456 149.612C190.476 148.737 191.497 147.862 192.548 146.96C219.455 124.669 219.455 124.669 237.857 95.9789C237.919 91.403 237.919 91.403 236.549 86.822C233.356 83.8148 233.356 83.8148 229.099 81.6662C228.339 81.2351 227.58 80.804 226.797 80.3598C225.195 79.4539 223.586 78.5615 221.97 77.682C218.125 75.5829 214.35 73.3648 210.56 71.1705C207.506 69.4358 204.45 67.7036 201.393 65.9738C189.669 59.3228 178.017 52.5883 166.554 45.4935C161.776 42.7975 161.434 43.15 156.753 46.2702ZM245.706 111.676C243.213 114.291 240.772 116.931 238.347 119.607C236.902 121.183 235.456 122.759 234.009 124.333C233.313 125.092 232.616 125.85 231.898 126.631C224.051 135.146 215.532 142.413 206.462 149.612C205.197 150.637 203.933 151.662 202.63 152.719C184.462 167.142 164.741 179.17 143.672 188.856C142.173 189.55 140.674 190.245 139.129 190.961C119.935 199.511 100.478 205.254 79.88 209.206C74.9619 210.182 70.0737 211.291 65.1847 212.402C71.273 217.76 78.1581 221.416 85.2153 225.32C98.0307 232.47 110.724 239.806 123.339 247.304C125.221 248.413 125.221 248.413 127.142 249.545C128.252 250.204 129.362 250.863 130.506 251.542C133.086 253.156 133.086 253.156 135.823 252.954C134.725 246.431 132.694 240.213 130.754 233.904C127.794 224.177 125.038 214.461 122.742 204.553C125.332 203.906 125.332 203.906 127.975 203.245C128.182 204.86 128.389 206.476 128.603 208.14C130.187 219.858 132.099 231.325 135.251 242.734C135.525 243.743 135.8 244.752 136.082 245.792C136.779 248.206 137.598 250.585 138.44 252.954C139.735 253.601 139.735 253.601 141.056 254.262C141.919 253.83 142.783 253.398 143.672 252.954C145.795 252.828 147.923 252.784 150.049 252.79C151.179 252.787 152.309 252.783 153.473 252.78C156.753 252.954 156.753 252.954 159.117 253.854C163.423 254.466 165.605 252.681 169.313 250.501C170.776 249.652 172.239 248.803 173.746 247.929C175.331 246.988 176.916 246.046 178.501 245.105C180.128 244.154 181.756 243.204 183.385 242.255C186.765 240.286 190.138 238.309 193.509 236.325C198.475 233.406 203.464 230.527 208.46 227.66C209.241 227.211 210.022 226.763 210.827 226.301C213.105 224.993 215.384 223.684 217.663 222.376C220.473 220.76 223.281 219.142 226.089 217.522C227.26 216.847 228.431 216.172 229.638 215.476C234.489 213.009 234.489 213.009 237.366 208.733C237.609 207.392 237.609 207.392 237.857 206.025C238.8 201.627 239.989 198.778 243.089 195.396C236.174 179.924 219.359 168.944 206.462 158.769C207.109 157.474 207.109 157.474 207.77 156.153C214.31 159.423 230.662 174.466 237.203 183.623C239.188 186.403 242.79 194.742 243.743 194.088C244.607 194.088 246.124 192.78 247.014 192.78C247.014 166.016 247.014 139.252 247.014 111.676C246.582 111.676 246.15 111.676 245.706 111.676Z" fill="#F0F3F7"/>
<path d="M120.125 118.217C123.579 119.512 127.032 120.807 130.59 122.141C130.518 123.014 130.445 123.887 130.371 124.786C128.689 145.261 127.392 165.708 126.666 186.239C124.507 187.103 122.349 187.966 120.125 188.856C119.051 181.356 118.624 174.101 118.643 166.531C118.642 165.435 118.641 164.339 118.639 163.21C118.639 160.909 118.641 158.608 118.646 156.307C118.653 152.806 118.647 149.304 118.638 145.803C118.639 143.555 118.641 141.308 118.643 139.06C118.641 138.024 118.638 136.988 118.635 135.921C118.66 129.887 119.13 124.171 120.125 118.217Z" fill="#E8ECF2"/>
</svg>
